PathFileType	4	(X/Y/Z)	E:\3-PhD\Data\MocapData\ElaboratedData\009\pre\dynamicElaborations\RunA1\RunA1.trc
DataRate	CameraRate	NumFrames	NumMarkers	Units	OrigDataRate	DataStartFrame
200	200	4	54	mm	200	4.160000e+02
Frame#	Time	FHD			LBHD			RBHD			C7			T10			CLAV			LSHO			LUUPA			LMUPA			LDUPA			LLEP			LMEP			LRAD			LUL			LRFIN			RSHO			RUPA1			RMUPA			RDUPA			RLEP			RMEP			RRAD			RUL			RUFIN			RASI			USACR			LSACR			RSACR			LTHI1			LTHI2			LTHI3			LTHI4			LTIB1			LTIB2			LTIB3			LTIB4			LLMAL			LHEE			LMT1			LMT2			RTHI			RTHI2			RTHI3			RTHI4			RLFC			RTIB1			RTIB2			RTIB3			RTIB4			RLMAL			RHEE			RMT1			RMT2			RMT5		
		X1	Y1	Z1	X2	Y2	Z2	X3	Y3	Z3	X4	Y4	Z4	X5	Y5	Z5	X6	Y6	Z6	X7	Y7	Z7	X8	Y8	Z8	X9	Y9	Z9	X10	Y10	Z10	X11	Y11	Z11	X12	Y12	Z12	X13	Y13	Z13	X14	Y14	Z14	X15	Y15	Z15	X16	Y16	Z16	X17	Y17	Z17	X18	Y18	Z18	X19	Y19	Z19	X20	Y20	Z20	X21	Y21	Z21	X22	Y22	Z22	X23	Y23	Z23	X24	Y24	Z24	X25	Y25	Z25	X26	Y26	Z26	X27	Y27	Z27	X28	Y28	Z28	X29	Y29	Z29	X30	Y30	Z30	X31	Y31	Z31	X32	Y32	Z32	X33	Y33	Z33	X34	Y34	Z34	X35	Y35	Z35	X36	Y36	Z36	X37	Y37	Z37	X38	Y38	Z38	X39	Y39	Z39	X40	Y40	Z40	X41	Y41	Z41	X42	Y42	Z42	X43	Y43	Z43	X44	Y44	Z44	X45	Y45	Z45	X46	Y46	Z46	X47	Y47	Z47	X48	Y48	Z48	X49	Y49	Z49	X50	Y50	Z50	X51	Y51	Z51	X52	Y52	Z52	X53	Y53	Z53	X54	Y54	Z54	

452	2.255000	-1907.888166	1533.003638	318.032726	-2080.343461	1556.924881	220.661987	-2050.645978	1538.018833	342.202276	-2146.278189	1420.123856	269.542085	-2337.127534	1132.059924	330.416309	-2044.246256	1287.757227	262.575674	-2070.033014	1362.995215	131.729313	-2055.051133	1190.180522	42.999466	-2009.858083	1180.927129	57.296102	-2026.181367	1128.058035	34.240749	-1971.106352	1012.340418	35.978600	-1986.876846	984.979427	97.865484	-1773.336037	1105.021933	162.542776	-1733.862327	1045.508371	144.666405	-1723.896622	1145.265108	134.335166	-2058.803709	1364.435941	427.209519	-2196.837686	1317.055021	546.276488	-2209.013127	1269.918787	545.591763	-2254.431698	1297.795253	574.439200	-2373.558164	1255.106434	620.632193	-2410.635895	1270.181311	565.103410	-2485.515843	1015.707248	615.393381	-2523.766897	1048.245491	666.638678	-2479.156241	954.334638	670.037724	-2233.300220	899.773682	369.393331	-2385.076477	1061.620579	350.329785	-2410.958016	1037.857944	326.616926	-2387.625640	1028.252696	380.248471	-2433.800236	722.869096	104.554641	-2412.945842	640.867614	94.011361	-2365.594299	634.785693	90.727919	-2442.934897	590.862183	113.521727	-2479.388709	301.971158	157.752358	-2559.297945	299.718631	120.178581	-2527.541990	275.775980	137.623269	-2568.415476	211.966200	177.041909	-2704.304686	123.963458	180.563614	-2789.320270	102.608922	229.859778	-2570.586607	55.611987	238.604382	-2573.621307	54.390494	191.898610	-2182.830060	728.661108	453.167823	-2121.858555	707.570769	441.357758	-2098.693741	726.125542	423.509535	-2102.096193	626.779391	423.296964	-2049.557616	553.732108	391.312039	-2211.617268	446.872164	342.337795	-2300.781529	482.965737	391.265878	-2290.630067	444.701735	366.218771	-2336.551474	427.243144	337.373062	-2434.879322	452.803259	379.741898	-2508.095105	504.965634	343.856073	-2438.233274	294.190784	303.588840	-2431.873885	292.824351	345.168614	-2461.421203	318.889249	401.845381	
453	2.260000	-1878.873478	1534.142987	319.359845	-2051.645200	1556.907619	222.274287	-2021.651749	1538.380174	343.689809	-2116.919689	1419.873835	270.645145	-2306.963727	1130.762221	327.505380	-2013.504976	1287.835458	265.157287	-2038.075645	1365.740752	135.459521	-2013.861542	1196.556902	45.037698	-1968.808946	1189.174708	60.256791	-1981.777252	1135.911106	36.174315	-1921.474521	1022.939661	38.042620	-1935.886017	994.334825	100.257263	-1733.276855	1132.493244	165.598019	-1688.853411	1076.501207	148.510412	-1687.358183	1176.482836	137.132142	-2029.907279	1364.933009	428.602127	-2169.885665	1324.382288	546.081776	-2183.449578	1277.709997	546.101611	-2228.586875	1307.626213	573.044904	-2350.154750	1270.131075	617.947011	-2385.302584	1284.852446	561.558742	-2469.359447	1034.324724	615.745714	-2507.461132	1069.383310	665.930483	-2465.724464	974.182791	671.503201	-2201.818235	901.026818	369.056045	-2354.586301	1060.370996	347.980670	-2380.372331	1036.332456	324.360339	-2357.361410	1027.377756	378.313571	-2412.155704	721.761994	106.464378	-2395.278143	638.802239	96.108811	-2348.280078	630.580127	92.253170	-2427.346216	590.535579	116.234130	-2472.564733	302.859642	159.891374	-2552.337159	302.359320	121.892813	-2521.118408	277.705062	139.184858	-2563.232288	214.351081	178.174831	-2700.704127	128.580214	180.524956	-2786.132573	109.748108	229.286069	-2569.768885	54.604897	238.584329	-2572.982485	54.053353	192.010410	-2146.449756	735.706335	452.016759	-2084.726961	717.367254	439.239330	-2062.688028	737.160037	421.194197	-2061.667427	637.477051	420.379286	-2005.749135	566.812905	388.122301	-2160.507180	448.515772	341.158416	-2251.365718	478.224046	391.138686	-2238.804597	440.733332	366.040409	-2283.700049	420.102569	337.524982	-2383.141455	437.869880	381.247423	-2460.918396	484.124060	346.751468	-2373.923331	280.500125	303.952071	-2366.880118	279.437747	345.502741	-2397.604795	302.455039	402.910183	
454	2.265000	-1849.544019	1535.459404	320.965576	-2022.559089	1557.354029	224.139843	-1992.307546	1539.150736	345.436504	-2087.313075	1420.070244	272.002238	-2276.538833	1129.839212	324.184059	-1982.570647	1288.369943	267.947193	-2006.129772	1369.023996	139.457797	-1973.449792	1203.912237	47.064617	-1928.612512	1198.230804	63.108701	-1938.406524	1144.794866	38.017770	-1873.697170	1034.575724	39.597037	-1886.860987	1004.709248	102.299620	-1695.978844	1159.406000	168.123819	-1647.093335	1107.208617	151.793558	-1653.783162	1206.749578	139.416819	-2000.605825	1365.670900	430.157838	-2142.347992	1331.786853	545.704391	-2157.198315	1285.614723	546.424722	-2202.082155	1317.429969	571.308559	-2325.809270	1284.806175	614.567330	-2358.941575	1298.758792	557.240970	-2451.476138	1052.347418	615.795670	-2489.526687	1089.952750	664.562334	-2450.534146	993.758574	672.797054	-2170.072358	902.791450	368.989383	-2323.840788	1059.369918	345.073166	-2349.478048	1035.037758	321.455563	-2327.039039	1026.807074	375.812005	-2389.188178	721.225120	108.099834	-2376.320847	637.467400	98.200408	-2329.760313	627.137961	94.361348	-2410.611927	591.099464	118.664909	-2465.141956	304.957936	162.076804	-2544.750338	306.103458	123.656610	-2514.038251	280.788332	140.805435	-2557.261063	217.769515	179.195046	-2696.119927	133.921361	180.303394	-2781.813302	118.050290	228.510679	-2568.838405	53.486735	238.546958	-2572.189361	53.694942	192.117797	-2110.766692	742.937192	451.077640	-2048.465135	727.167775	437.403360	-2027.526595	748.075209	419.180379	-2022.410809	648.219581	417.824475	-1963.342072	579.860619	385.349327	-2109.660314	450.125268	340.200026	-2201.914603	473.066083	391.019371	-2186.878021	436.553595	365.946158	-2230.386242	412.716861	337.607774	-2330.506943	422.366286	382.611589	-2412.341672	462.163361	349.411462	-2308.496364	267.342066	303.965633	-2300.845099	266.620376	345.502105	-2332.644445	286.419530	403.645339	
455	2.270000	-1819.913737	1536.902480	322.816994	-1993.104033	1558.254736	226.236389	-1962.625942	1540.316495	347.423909	-2057.496733	1420.692353	273.600508	-2245.867030	1129.262263	320.508047	-1951.496178	1289.366982	270.891711	-1974.291375	1372.742796	143.652152	-1933.939559	1211.993115	49.053106	-1889.349954	1207.836317	65.796036	-1896.212834	1154.405612	39.758587	-1827.884110	1046.849894	40.587913	-1839.953070	1015.652889	103.818582	-1661.298456	1185.250602	170.202621	-1608.435888	1137.034170	154.565993	-1622.938551	1235.576564	141.314547	-1970.935436	1366.655343	431.870639	-2114.273301	1339.104576	545.170966	-2130.294692	1293.449208	546.556108	-2174.951231	1327.004822	569.277037	-2300.550165	1298.920772	610.589584	-2331.635275	1311.708185	552.277291	-2431.922619	1069.509369	615.635406	-2470.013631	1109.659729	662.632557	-2433.619065	1012.788507	673.993489	-2138.127631	904.924818	369.092555	-2292.852555	1058.611812	341.648607	-2318.286171	1033.969227	317.956597	-2296.668351	1026.525379	372.769679	-2364.783398	721.207514	109.391915	-2355.932292	636.818080	100.248976	-2309.890273	624.452316	97.017197	-2392.576745	592.507029	120.762929	-2456.914996	308.313367	164.237810	-2536.369983	310.998825	125.469067	-2506.119315	285.072436	142.467240	-2550.297091	222.251598	180.084525	-2690.357219	140.018169	179.947766	-2776.094901	127.588742	227.640268	-2567.765872	52.329149	238.524286	-2571.202788	53.360618	192.224525	-2075.783268	750.217451	450.354487	-2013.050143	736.800201	435.886229	-1993.158756	758.689048	417.503599	-1984.310606	658.787426	415.709859	-1922.328643	592.591735	383.081781	-2059.090898	451.627618	339.477222	-2152.410286	467.482381	390.927991	-2134.857346	432.157030	365.929217	-2176.603964	405.155146	337.633181	-2276.915302	406.472342	383.775319	-2362.225583	439.314590	351.698415	-2242.036879	254.917049	303.711677	-2233.877839	254.576007	345.247154	-2266.637745	271.027741	404.073997	
